<mxfile host="app.diagrams.net" modified="2021-06-03T12:58:21.030Z" agent="5.0 (Windows NT 10.0; Win64; x64) AppleWebKit/537.36 (KHTML, like Gecko) Chrome/91.0.4472.77 Safari/537.36 Edg/91.0.864.37" etag="m24hz3GW2pjawSmt5OOv" version="14.7.4" type="github">
  <diagram id="4o0ffktTfMrf9YX3-bX-" name="Page-1">
    <mxGraphModel dx="1784" dy="772" grid="0" gridSize="10" guides="1" tooltips="1" connect="1" arrows="1" fold="1" page="0" pageScale="1" pageWidth="827" pageHeight="1169" math="0" shadow="0">
      <root>
        <mxCell id="0" />
        <mxCell id="1" parent="0" />
        <mxCell id="ZkkszKnoVTtbmK1aXRnz-1" style="edgeStyle=orthogonalEdgeStyle;rounded=0;orthogonalLoop=1;jettySize=auto;html=1;exitX=0.5;exitY=1;exitDx=0;exitDy=0;endArrow=none;endFill=0;" parent="1" source="ZkkszKnoVTtbmK1aXRnz-3" target="ZkkszKnoVTtbmK1aXRnz-9" edge="1">
          <mxGeometry relative="1" as="geometry" />
        </mxCell>
        <mxCell id="ZkkszKnoVTtbmK1aXRnz-2" style="edgeStyle=orthogonalEdgeStyle;rounded=0;orthogonalLoop=1;jettySize=auto;html=1;entryX=0.5;entryY=0;entryDx=0;entryDy=0;endArrow=none;endFill=0;exitX=0.5;exitY=1;exitDx=0;exitDy=0;" parent="1" source="ZkkszKnoVTtbmK1aXRnz-3" target="ZkkszKnoVTtbmK1aXRnz-13" edge="1">
          <mxGeometry relative="1" as="geometry" />
        </mxCell>
        <mxCell id="ZkkszKnoVTtbmK1aXRnz-3" value="二手书交易系统" style="rounded=0;whiteSpace=wrap;html=1;" parent="1" vertex="1">
          <mxGeometry x="370" y="40" width="120" height="40" as="geometry" />
        </mxCell>
        <mxCell id="ZkkszKnoVTtbmK1aXRnz-4" style="edgeStyle=orthogonalEdgeStyle;rounded=0;orthogonalLoop=1;jettySize=auto;html=1;exitX=0.5;exitY=0;exitDx=0;exitDy=0;entryX=0;entryY=0.5;entryDx=0;entryDy=0;endArrow=none;endFill=0;" parent="1" source="ZkkszKnoVTtbmK1aXRnz-9" target="ZkkszKnoVTtbmK1aXRnz-16" edge="1">
          <mxGeometry relative="1" as="geometry" />
        </mxCell>
        <mxCell id="ZkkszKnoVTtbmK1aXRnz-5" style="edgeStyle=orthogonalEdgeStyle;rounded=0;orthogonalLoop=1;jettySize=auto;html=1;exitX=0.5;exitY=0;exitDx=0;exitDy=0;entryX=0;entryY=0.5;entryDx=0;entryDy=0;endArrow=none;endFill=0;" parent="1" source="ZkkszKnoVTtbmK1aXRnz-9" target="ZkkszKnoVTtbmK1aXRnz-18" edge="1">
          <mxGeometry relative="1" as="geometry" />
        </mxCell>
        <mxCell id="ZkkszKnoVTtbmK1aXRnz-6" style="edgeStyle=orthogonalEdgeStyle;rounded=0;orthogonalLoop=1;jettySize=auto;html=1;exitX=0.5;exitY=0;exitDx=0;exitDy=0;entryX=0;entryY=0.5;entryDx=0;entryDy=0;endArrow=none;endFill=0;" parent="1" source="ZkkszKnoVTtbmK1aXRnz-9" target="ZkkszKnoVTtbmK1aXRnz-21" edge="1">
          <mxGeometry relative="1" as="geometry" />
        </mxCell>
        <mxCell id="ZkkszKnoVTtbmK1aXRnz-7" style="edgeStyle=orthogonalEdgeStyle;rounded=0;orthogonalLoop=1;jettySize=auto;html=1;exitX=0.5;exitY=0;exitDx=0;exitDy=0;entryX=0;entryY=0.5;entryDx=0;entryDy=0;endArrow=none;endFill=0;" parent="1" source="ZkkszKnoVTtbmK1aXRnz-9" target="ZkkszKnoVTtbmK1aXRnz-26" edge="1">
          <mxGeometry relative="1" as="geometry" />
        </mxCell>
        <mxCell id="ZkkszKnoVTtbmK1aXRnz-8" style="edgeStyle=orthogonalEdgeStyle;rounded=0;orthogonalLoop=1;jettySize=auto;html=1;exitX=0.5;exitY=0;exitDx=0;exitDy=0;entryX=0;entryY=0.5;entryDx=0;entryDy=0;endArrow=none;endFill=0;" parent="1" source="ZkkszKnoVTtbmK1aXRnz-9" target="ZkkszKnoVTtbmK1aXRnz-30" edge="1">
          <mxGeometry relative="1" as="geometry" />
        </mxCell>
        <mxCell id="ZkkszKnoVTtbmK1aXRnz-9" value="用户" style="rounded=0;whiteSpace=wrap;html=1;direction=west;" parent="1" vertex="1">
          <mxGeometry x="250" y="140" width="120" height="40" as="geometry" />
        </mxCell>
        <mxCell id="ZkkszKnoVTtbmK1aXRnz-10" style="edgeStyle=orthogonalEdgeStyle;rounded=0;orthogonalLoop=1;jettySize=auto;html=1;exitX=0.5;exitY=1;exitDx=0;exitDy=0;entryX=0;entryY=0.5;entryDx=0;entryDy=0;endArrow=none;endFill=0;" parent="1" source="ZkkszKnoVTtbmK1aXRnz-13" target="ZkkszKnoVTtbmK1aXRnz-31" edge="1">
          <mxGeometry relative="1" as="geometry" />
        </mxCell>
        <mxCell id="ZkkszKnoVTtbmK1aXRnz-11" style="edgeStyle=orthogonalEdgeStyle;rounded=0;orthogonalLoop=1;jettySize=auto;html=1;exitX=0.5;exitY=1;exitDx=0;exitDy=0;entryX=0;entryY=0.5;entryDx=0;entryDy=0;endArrow=none;endFill=0;" parent="1" source="ZkkszKnoVTtbmK1aXRnz-13" target="ZkkszKnoVTtbmK1aXRnz-32" edge="1">
          <mxGeometry relative="1" as="geometry" />
        </mxCell>
        <mxCell id="ZkkszKnoVTtbmK1aXRnz-12" style="edgeStyle=orthogonalEdgeStyle;rounded=0;orthogonalLoop=1;jettySize=auto;html=1;exitX=0.5;exitY=1;exitDx=0;exitDy=0;entryX=0;entryY=0.5;entryDx=0;entryDy=0;endArrow=none;endFill=0;" parent="1" source="ZkkszKnoVTtbmK1aXRnz-13" target="ZkkszKnoVTtbmK1aXRnz-33" edge="1">
          <mxGeometry relative="1" as="geometry" />
        </mxCell>
        <mxCell id="ZkkszKnoVTtbmK1aXRnz-13" value="管理员" style="rounded=0;whiteSpace=wrap;html=1;" parent="1" vertex="1">
          <mxGeometry x="550" y="140" width="120" height="40" as="geometry" />
        </mxCell>
        <mxCell id="ZkkszKnoVTtbmK1aXRnz-14" style="edgeStyle=orthogonalEdgeStyle;rounded=0;orthogonalLoop=1;jettySize=auto;html=1;exitX=1;exitY=0.5;exitDx=0;exitDy=0;entryX=0;entryY=0.5;entryDx=0;entryDy=0;endArrow=none;endFill=0;" parent="1" source="ZkkszKnoVTtbmK1aXRnz-16" target="ZkkszKnoVTtbmK1aXRnz-34" edge="1">
          <mxGeometry relative="1" as="geometry" />
        </mxCell>
        <mxCell id="ZkkszKnoVTtbmK1aXRnz-15" style="edgeStyle=orthogonalEdgeStyle;rounded=0;orthogonalLoop=1;jettySize=auto;html=1;exitX=1;exitY=0.5;exitDx=0;exitDy=0;entryX=0;entryY=0.5;entryDx=0;entryDy=0;endArrow=none;endFill=0;" parent="1" source="ZkkszKnoVTtbmK1aXRnz-16" target="ZkkszKnoVTtbmK1aXRnz-35" edge="1">
          <mxGeometry relative="1" as="geometry" />
        </mxCell>
        <mxCell id="ZkkszKnoVTtbmK1aXRnz-16" value="登陆注册" style="rounded=0;whiteSpace=wrap;html=1;direction=south;" parent="1" vertex="1">
          <mxGeometry x="60" y="240" width="40" height="120" as="geometry" />
        </mxCell>
        <mxCell id="ZkkszKnoVTtbmK1aXRnz-17" style="edgeStyle=orthogonalEdgeStyle;rounded=0;orthogonalLoop=1;jettySize=auto;html=1;exitX=1;exitY=0.5;exitDx=0;exitDy=0;entryX=0;entryY=0.5;entryDx=0;entryDy=0;endArrow=none;endFill=0;" parent="1" source="ZkkszKnoVTtbmK1aXRnz-18" target="ZkkszKnoVTtbmK1aXRnz-36" edge="1">
          <mxGeometry relative="1" as="geometry" />
        </mxCell>
        <mxCell id="ZkkszKnoVTtbmK1aXRnz-18" value="个人中心" style="rounded=0;whiteSpace=wrap;html=1;direction=south;" parent="1" vertex="1">
          <mxGeometry x="135" y="240" width="40" height="120" as="geometry" />
        </mxCell>
        <mxCell id="ZkkszKnoVTtbmK1aXRnz-19" style="edgeStyle=orthogonalEdgeStyle;rounded=0;orthogonalLoop=1;jettySize=auto;html=1;exitX=1;exitY=0.5;exitDx=0;exitDy=0;entryX=0;entryY=0.5;entryDx=0;entryDy=0;endArrow=none;endFill=0;" parent="1" source="ZkkszKnoVTtbmK1aXRnz-21" target="ZkkszKnoVTtbmK1aXRnz-37" edge="1">
          <mxGeometry relative="1" as="geometry" />
        </mxCell>
        <mxCell id="ZkkszKnoVTtbmK1aXRnz-20" style="edgeStyle=orthogonalEdgeStyle;rounded=0;orthogonalLoop=1;jettySize=auto;html=1;exitX=1;exitY=0.5;exitDx=0;exitDy=0;entryX=0;entryY=0.5;entryDx=0;entryDy=0;endArrow=none;endFill=0;" parent="1" source="ZkkszKnoVTtbmK1aXRnz-21" target="ZkkszKnoVTtbmK1aXRnz-38" edge="1">
          <mxGeometry relative="1" as="geometry" />
        </mxCell>
        <mxCell id="ZkkszKnoVTtbmK1aXRnz-21" value="心愿书单管理" style="rounded=0;whiteSpace=wrap;html=1;direction=south;" parent="1" vertex="1">
          <mxGeometry x="210" y="240" width="40" height="120" as="geometry" />
        </mxCell>
        <mxCell id="ZkkszKnoVTtbmK1aXRnz-22" style="edgeStyle=orthogonalEdgeStyle;rounded=0;orthogonalLoop=1;jettySize=auto;html=1;exitX=1;exitY=0.5;exitDx=0;exitDy=0;entryX=0;entryY=0.5;entryDx=0;entryDy=0;endArrow=none;endFill=0;" parent="1" source="ZkkszKnoVTtbmK1aXRnz-26" target="ZkkszKnoVTtbmK1aXRnz-39" edge="1">
          <mxGeometry relative="1" as="geometry" />
        </mxCell>
        <mxCell id="ZkkszKnoVTtbmK1aXRnz-23" style="edgeStyle=orthogonalEdgeStyle;rounded=0;orthogonalLoop=1;jettySize=auto;html=1;exitX=1;exitY=0.5;exitDx=0;exitDy=0;entryX=0;entryY=0.5;entryDx=0;entryDy=0;endArrow=none;endFill=0;" parent="1" source="ZkkszKnoVTtbmK1aXRnz-26" target="ZkkszKnoVTtbmK1aXRnz-40" edge="1">
          <mxGeometry relative="1" as="geometry" />
        </mxCell>
        <mxCell id="ZkkszKnoVTtbmK1aXRnz-24" style="edgeStyle=orthogonalEdgeStyle;rounded=0;orthogonalLoop=1;jettySize=auto;html=1;exitX=1;exitY=0.5;exitDx=0;exitDy=0;entryX=0;entryY=0.5;entryDx=0;entryDy=0;endArrow=none;endFill=0;" parent="1" source="ZkkszKnoVTtbmK1aXRnz-26" target="ZkkszKnoVTtbmK1aXRnz-41" edge="1">
          <mxGeometry relative="1" as="geometry" />
        </mxCell>
        <mxCell id="ZkkszKnoVTtbmK1aXRnz-25" style="edgeStyle=orthogonalEdgeStyle;rounded=0;orthogonalLoop=1;jettySize=auto;html=1;exitX=1;exitY=0.5;exitDx=0;exitDy=0;entryX=0;entryY=0.5;entryDx=0;entryDy=0;endArrow=none;endFill=0;" parent="1" source="ZkkszKnoVTtbmK1aXRnz-26" target="ZkkszKnoVTtbmK1aXRnz-42" edge="1">
          <mxGeometry relative="1" as="geometry" />
        </mxCell>
        <mxCell id="ZkkszKnoVTtbmK1aXRnz-26" value="订单管理" style="rounded=0;whiteSpace=wrap;html=1;direction=south;" parent="1" vertex="1">
          <mxGeometry x="340" y="240" width="40" height="120" as="geometry" />
        </mxCell>
        <mxCell id="ZkkszKnoVTtbmK1aXRnz-27" style="edgeStyle=orthogonalEdgeStyle;rounded=0;orthogonalLoop=1;jettySize=auto;html=1;exitX=1;exitY=0.5;exitDx=0;exitDy=0;entryX=0;entryY=0.5;entryDx=0;entryDy=0;endArrow=none;endFill=0;" parent="1" source="ZkkszKnoVTtbmK1aXRnz-30" target="ZkkszKnoVTtbmK1aXRnz-43" edge="1">
          <mxGeometry relative="1" as="geometry" />
        </mxCell>
        <mxCell id="ZkkszKnoVTtbmK1aXRnz-28" style="edgeStyle=orthogonalEdgeStyle;rounded=0;orthogonalLoop=1;jettySize=auto;html=1;exitX=1;exitY=0.5;exitDx=0;exitDy=0;entryX=0;entryY=0.5;entryDx=0;entryDy=0;endArrow=none;endFill=0;" parent="1" source="ZkkszKnoVTtbmK1aXRnz-30" target="ZkkszKnoVTtbmK1aXRnz-44" edge="1">
          <mxGeometry relative="1" as="geometry" />
        </mxCell>
        <mxCell id="ZkkszKnoVTtbmK1aXRnz-29" style="edgeStyle=orthogonalEdgeStyle;rounded=0;orthogonalLoop=1;jettySize=auto;html=1;exitX=1;exitY=0.5;exitDx=0;exitDy=0;entryX=0;entryY=0.5;entryDx=0;entryDy=0;endArrow=none;endFill=0;" parent="1" source="ZkkszKnoVTtbmK1aXRnz-30" target="ZkkszKnoVTtbmK1aXRnz-45" edge="1">
          <mxGeometry relative="1" as="geometry" />
        </mxCell>
        <mxCell id="ZkkszKnoVTtbmK1aXRnz-30" value="书籍管理" style="rounded=0;whiteSpace=wrap;html=1;direction=south;" parent="1" vertex="1">
          <mxGeometry x="440" y="240" width="40" height="120" as="geometry" />
        </mxCell>
        <mxCell id="ZkkszKnoVTtbmK1aXRnz-31" value="登录" style="rounded=0;whiteSpace=wrap;html=1;direction=south;" parent="1" vertex="1">
          <mxGeometry x="530" y="240" width="40" height="120" as="geometry" />
        </mxCell>
        <mxCell id="ZkkszKnoVTtbmK1aXRnz-32" value="用户管理" style="rounded=0;whiteSpace=wrap;html=1;direction=south;" parent="1" vertex="1">
          <mxGeometry x="590" y="240" width="40" height="120" as="geometry" />
        </mxCell>
        <mxCell id="ZkkszKnoVTtbmK1aXRnz-33" value="申诉审核" style="rounded=0;whiteSpace=wrap;html=1;direction=south;" parent="1" vertex="1">
          <mxGeometry x="660" y="240" width="40" height="120" as="geometry" />
        </mxCell>
        <mxCell id="ZkkszKnoVTtbmK1aXRnz-34" value="注册" style="rounded=0;whiteSpace=wrap;html=1;direction=south;" parent="1" vertex="1">
          <mxGeometry x="40" y="420" width="30" height="110" as="geometry" />
        </mxCell>
        <mxCell id="ZkkszKnoVTtbmK1aXRnz-35" value="登录" style="rounded=0;whiteSpace=wrap;html=1;direction=south;" parent="1" vertex="1">
          <mxGeometry x="90" y="420" width="30" height="110" as="geometry" />
        </mxCell>
        <mxCell id="ZkkszKnoVTtbmK1aXRnz-36" value="查看个人信息" style="rounded=0;whiteSpace=wrap;html=1;direction=south;" parent="1" vertex="1">
          <mxGeometry x="140" y="420" width="30" height="110" as="geometry" />
        </mxCell>
        <mxCell id="ZkkszKnoVTtbmK1aXRnz-37" value="添加心愿书单" style="rounded=0;whiteSpace=wrap;html=1;direction=south;" parent="1" vertex="1">
          <mxGeometry x="180" y="420" width="30" height="110" as="geometry" />
        </mxCell>
        <mxCell id="ZkkszKnoVTtbmK1aXRnz-38" value="删除心愿书单" style="rounded=0;whiteSpace=wrap;html=1;direction=south;" parent="1" vertex="1">
          <mxGeometry x="230" y="420" width="30" height="110" as="geometry" />
        </mxCell>
        <mxCell id="ZkkszKnoVTtbmK1aXRnz-39" value="订单支付" style="rounded=0;whiteSpace=wrap;html=1;direction=south;" parent="1" vertex="1">
          <mxGeometry x="270" y="420" width="30" height="110" as="geometry" />
        </mxCell>
        <mxCell id="ZkkszKnoVTtbmK1aXRnz-40" value="取消订单" style="rounded=0;whiteSpace=wrap;html=1;direction=south;" parent="1" vertex="1">
          <mxGeometry x="310" y="420" width="30" height="110" as="geometry" />
        </mxCell>
        <mxCell id="ZkkszKnoVTtbmK1aXRnz-41" value="申诉订单" style="rounded=0;whiteSpace=wrap;html=1;direction=south;" parent="1" vertex="1">
          <mxGeometry x="350" y="420" width="30" height="110" as="geometry" />
        </mxCell>
        <mxCell id="ZkkszKnoVTtbmK1aXRnz-42" value="评论订单" style="rounded=0;whiteSpace=wrap;html=1;direction=south;" parent="1" vertex="1">
          <mxGeometry x="390" y="420" width="30" height="110" as="geometry" />
        </mxCell>
        <mxCell id="ZkkszKnoVTtbmK1aXRnz-43" value="欲售书籍上传" style="rounded=0;whiteSpace=wrap;html=1;direction=south;" parent="1" vertex="1">
          <mxGeometry x="430" y="420" width="30" height="110" as="geometry" />
        </mxCell>
        <mxCell id="ZkkszKnoVTtbmK1aXRnz-44" value="书籍预览与查询" style="rounded=0;whiteSpace=wrap;html=1;direction=south;" parent="1" vertex="1">
          <mxGeometry x="470" y="420" width="30" height="110" as="geometry" />
        </mxCell>
        <mxCell id="ZkkszKnoVTtbmK1aXRnz-45" value="书籍生成订单" style="rounded=0;whiteSpace=wrap;html=1;direction=south;" parent="1" vertex="1">
          <mxGeometry x="510" y="420" width="30" height="110" as="geometry" />
        </mxCell>
        <mxCell id="ZkkszKnoVTtbmK1aXRnz-46" value="1" style="edgeStyle=none;rounded=0;orthogonalLoop=1;jettySize=auto;html=1;exitX=0.5;exitY=1;exitDx=0;exitDy=0;entryX=0.5;entryY=0;entryDx=0;entryDy=0;endArrow=none;endFill=0;" parent="1" source="ZkkszKnoVTtbmK1aXRnz-50" target="ZkkszKnoVTtbmK1aXRnz-74" edge="1">
          <mxGeometry relative="1" as="geometry" />
        </mxCell>
        <mxCell id="ZkkszKnoVTtbmK1aXRnz-47" value="1" style="edgeStyle=none;rounded=0;orthogonalLoop=1;jettySize=auto;html=1;exitX=1;exitY=0.5;exitDx=0;exitDy=0;entryX=0;entryY=0.5;entryDx=0;entryDy=0;endArrow=none;endFill=0;" parent="1" source="ZkkszKnoVTtbmK1aXRnz-50" target="ZkkszKnoVTtbmK1aXRnz-78" edge="1">
          <mxGeometry relative="1" as="geometry" />
        </mxCell>
        <mxCell id="ZkkszKnoVTtbmK1aXRnz-48" value="1" style="edgeStyle=none;rounded=0;orthogonalLoop=1;jettySize=auto;html=1;entryX=0;entryY=0.5;entryDx=0;entryDy=0;endArrow=none;endFill=0;exitX=0.5;exitY=1;exitDx=0;exitDy=0;" parent="1" source="ZkkszKnoVTtbmK1aXRnz-50" target="ZkkszKnoVTtbmK1aXRnz-80" edge="1">
          <mxGeometry relative="1" as="geometry" />
        </mxCell>
        <mxCell id="ZkkszKnoVTtbmK1aXRnz-49" style="edgeStyle=none;rounded=0;orthogonalLoop=1;jettySize=auto;html=1;exitX=1;exitY=0.75;exitDx=0;exitDy=0;entryX=0;entryY=0.5;entryDx=0;entryDy=0;endArrow=none;endFill=0;" parent="1" source="ZkkszKnoVTtbmK1aXRnz-50" target="ZkkszKnoVTtbmK1aXRnz-137" edge="1">
          <mxGeometry relative="1" as="geometry" />
        </mxCell>
        <mxCell id="bPHqQYPLhakSbmtWYrmr-3" value="1" style="edgeStyle=none;rounded=0;orthogonalLoop=1;jettySize=auto;html=1;exitX=0;exitY=0.5;exitDx=0;exitDy=0;entryX=0.5;entryY=0;entryDx=0;entryDy=0;endArrow=none;endFill=0;" edge="1" parent="1" source="ZkkszKnoVTtbmK1aXRnz-50" target="bPHqQYPLhakSbmtWYrmr-2">
          <mxGeometry relative="1" as="geometry" />
        </mxCell>
        <mxCell id="ZkkszKnoVTtbmK1aXRnz-50" value="用户" style="rounded=0;whiteSpace=wrap;html=1;" parent="1" vertex="1">
          <mxGeometry x="129" y="835" width="90" height="39" as="geometry" />
        </mxCell>
        <mxCell id="ZkkszKnoVTtbmK1aXRnz-51" value="1" style="edgeStyle=none;rounded=0;orthogonalLoop=1;jettySize=auto;html=1;exitX=0.5;exitY=1;exitDx=0;exitDy=0;entryX=0.5;entryY=0;entryDx=0;entryDy=0;endArrow=none;endFill=0;" parent="1" source="ZkkszKnoVTtbmK1aXRnz-59" target="ZkkszKnoVTtbmK1aXRnz-76" edge="1">
          <mxGeometry relative="1" as="geometry" />
        </mxCell>
        <mxCell id="ZkkszKnoVTtbmK1aXRnz-52" style="edgeStyle=none;rounded=0;orthogonalLoop=1;jettySize=auto;html=1;exitX=0;exitY=0.5;exitDx=0;exitDy=0;entryX=1;entryY=0.5;entryDx=0;entryDy=0;endArrow=none;endFill=0;" parent="1" source="ZkkszKnoVTtbmK1aXRnz-59" target="ZkkszKnoVTtbmK1aXRnz-110" edge="1">
          <mxGeometry relative="1" as="geometry" />
        </mxCell>
        <mxCell id="ZkkszKnoVTtbmK1aXRnz-53" style="edgeStyle=none;rounded=0;orthogonalLoop=1;jettySize=auto;html=1;exitX=0;exitY=0.5;exitDx=0;exitDy=0;entryX=1;entryY=0.5;entryDx=0;entryDy=0;endArrow=none;endFill=0;" parent="1" source="ZkkszKnoVTtbmK1aXRnz-59" target="ZkkszKnoVTtbmK1aXRnz-108" edge="1">
          <mxGeometry relative="1" as="geometry" />
        </mxCell>
        <mxCell id="ZkkszKnoVTtbmK1aXRnz-54" style="edgeStyle=none;rounded=0;orthogonalLoop=1;jettySize=auto;html=1;exitX=0;exitY=0.5;exitDx=0;exitDy=0;entryX=1;entryY=0.5;entryDx=0;entryDy=0;endArrow=none;endFill=0;" parent="1" source="ZkkszKnoVTtbmK1aXRnz-59" target="ZkkszKnoVTtbmK1aXRnz-109" edge="1">
          <mxGeometry relative="1" as="geometry" />
        </mxCell>
        <mxCell id="ZkkszKnoVTtbmK1aXRnz-55" style="edgeStyle=none;rounded=0;orthogonalLoop=1;jettySize=auto;html=1;exitX=1;exitY=0.5;exitDx=0;exitDy=0;entryX=0.5;entryY=1;entryDx=0;entryDy=0;endArrow=none;endFill=0;" parent="1" source="ZkkszKnoVTtbmK1aXRnz-59" target="ZkkszKnoVTtbmK1aXRnz-111" edge="1">
          <mxGeometry relative="1" as="geometry" />
        </mxCell>
        <mxCell id="ZkkszKnoVTtbmK1aXRnz-56" style="edgeStyle=none;rounded=0;orthogonalLoop=1;jettySize=auto;html=1;exitX=1;exitY=0.5;exitDx=0;exitDy=0;entryX=0;entryY=0.5;entryDx=0;entryDy=0;endArrow=none;endFill=0;" parent="1" source="ZkkszKnoVTtbmK1aXRnz-59" target="ZkkszKnoVTtbmK1aXRnz-112" edge="1">
          <mxGeometry relative="1" as="geometry" />
        </mxCell>
        <mxCell id="ZkkszKnoVTtbmK1aXRnz-57" style="edgeStyle=none;rounded=0;orthogonalLoop=1;jettySize=auto;html=1;exitX=1;exitY=0.5;exitDx=0;exitDy=0;entryX=0;entryY=0.5;entryDx=0;entryDy=0;endArrow=none;endFill=0;" parent="1" source="ZkkszKnoVTtbmK1aXRnz-59" target="ZkkszKnoVTtbmK1aXRnz-113" edge="1">
          <mxGeometry relative="1" as="geometry" />
        </mxCell>
        <mxCell id="ZkkszKnoVTtbmK1aXRnz-58" value="1" style="edgeStyle=none;rounded=0;orthogonalLoop=1;jettySize=auto;html=1;exitX=1;exitY=0.5;exitDx=0;exitDy=0;entryX=0;entryY=0.5;entryDx=0;entryDy=0;endArrow=none;endFill=0;" parent="1" source="ZkkszKnoVTtbmK1aXRnz-59" target="ZkkszKnoVTtbmK1aXRnz-115" edge="1">
          <mxGeometry relative="1" as="geometry" />
        </mxCell>
        <mxCell id="ZkkszKnoVTtbmK1aXRnz-59" value="订单" style="rounded=0;whiteSpace=wrap;html=1;" parent="1" vertex="1">
          <mxGeometry x="133" y="1086.5" width="90" height="39" as="geometry" />
        </mxCell>
        <mxCell id="ZkkszKnoVTtbmK1aXRnz-60" style="edgeStyle=none;rounded=0;orthogonalLoop=1;jettySize=auto;html=1;exitX=0.5;exitY=1;exitDx=0;exitDy=0;entryX=1;entryY=0;entryDx=0;entryDy=0;endArrow=none;endFill=0;" parent="1" source="ZkkszKnoVTtbmK1aXRnz-66" target="ZkkszKnoVTtbmK1aXRnz-107" edge="1">
          <mxGeometry relative="1" as="geometry" />
        </mxCell>
        <mxCell id="ZkkszKnoVTtbmK1aXRnz-61" style="edgeStyle=none;rounded=0;orthogonalLoop=1;jettySize=auto;html=1;exitX=0.5;exitY=1;exitDx=0;exitDy=0;entryX=0.5;entryY=0;entryDx=0;entryDy=0;endArrow=none;endFill=0;" parent="1" source="ZkkszKnoVTtbmK1aXRnz-66" target="ZkkszKnoVTtbmK1aXRnz-102" edge="1">
          <mxGeometry relative="1" as="geometry" />
        </mxCell>
        <mxCell id="ZkkszKnoVTtbmK1aXRnz-62" style="edgeStyle=none;rounded=0;orthogonalLoop=1;jettySize=auto;html=1;exitX=0.5;exitY=1;exitDx=0;exitDy=0;entryX=0.5;entryY=0;entryDx=0;entryDy=0;endArrow=none;endFill=0;" parent="1" source="ZkkszKnoVTtbmK1aXRnz-66" target="ZkkszKnoVTtbmK1aXRnz-103" edge="1">
          <mxGeometry relative="1" as="geometry" />
        </mxCell>
        <mxCell id="ZkkszKnoVTtbmK1aXRnz-63" style="edgeStyle=none;rounded=0;orthogonalLoop=1;jettySize=auto;html=1;exitX=0.5;exitY=1;exitDx=0;exitDy=0;entryX=0.5;entryY=0.073;entryDx=0;entryDy=0;entryPerimeter=0;endArrow=none;endFill=0;" parent="1" source="ZkkszKnoVTtbmK1aXRnz-66" target="ZkkszKnoVTtbmK1aXRnz-104" edge="1">
          <mxGeometry relative="1" as="geometry" />
        </mxCell>
        <mxCell id="ZkkszKnoVTtbmK1aXRnz-64" style="edgeStyle=none;rounded=0;orthogonalLoop=1;jettySize=auto;html=1;exitX=0.5;exitY=1;exitDx=0;exitDy=0;entryX=0.5;entryY=0;entryDx=0;entryDy=0;endArrow=none;endFill=0;" parent="1" source="ZkkszKnoVTtbmK1aXRnz-66" target="ZkkszKnoVTtbmK1aXRnz-105" edge="1">
          <mxGeometry relative="1" as="geometry" />
        </mxCell>
        <mxCell id="ZkkszKnoVTtbmK1aXRnz-65" style="edgeStyle=none;rounded=0;orthogonalLoop=1;jettySize=auto;html=1;exitX=0.5;exitY=1;exitDx=0;exitDy=0;entryX=0;entryY=0;entryDx=0;entryDy=0;endArrow=none;endFill=0;" parent="1" source="ZkkszKnoVTtbmK1aXRnz-66" target="ZkkszKnoVTtbmK1aXRnz-106" edge="1">
          <mxGeometry relative="1" as="geometry" />
        </mxCell>
        <mxCell id="ZkkszKnoVTtbmK1aXRnz-66" value="书籍" style="rounded=0;whiteSpace=wrap;html=1;" parent="1" vertex="1">
          <mxGeometry x="-177" y="1201.5" width="90" height="39" as="geometry" />
        </mxCell>
        <mxCell id="ZkkszKnoVTtbmK1aXRnz-67" style="edgeStyle=none;rounded=0;orthogonalLoop=1;jettySize=auto;html=1;exitX=1;exitY=0.5;exitDx=0;exitDy=0;entryX=0;entryY=0;entryDx=0;entryDy=0;endArrow=none;endFill=0;" parent="1" source="ZkkszKnoVTtbmK1aXRnz-69" target="ZkkszKnoVTtbmK1aXRnz-138" edge="1">
          <mxGeometry relative="1" as="geometry" />
        </mxCell>
        <mxCell id="ZkkszKnoVTtbmK1aXRnz-68" style="edgeStyle=none;rounded=0;orthogonalLoop=1;jettySize=auto;html=1;exitX=1;exitY=0.5;exitDx=0;exitDy=0;entryX=0.5;entryY=0;entryDx=0;entryDy=0;endArrow=none;endFill=0;" parent="1" source="ZkkszKnoVTtbmK1aXRnz-69" target="ZkkszKnoVTtbmK1aXRnz-139" edge="1">
          <mxGeometry relative="1" as="geometry" />
        </mxCell>
        <mxCell id="ZkkszKnoVTtbmK1aXRnz-69" value="申诉请求" style="rounded=0;whiteSpace=wrap;html=1;" parent="1" vertex="1">
          <mxGeometry x="480" y="964" width="90" height="39" as="geometry" />
        </mxCell>
        <mxCell id="ZkkszKnoVTtbmK1aXRnz-70" value="心愿书籍" style="rounded=0;whiteSpace=wrap;html=1;" parent="1" vertex="1">
          <mxGeometry x="466" y="835" width="90" height="39" as="geometry" />
        </mxCell>
        <mxCell id="ZkkszKnoVTtbmK1aXRnz-71" value="n" style="edgeStyle=none;rounded=0;orthogonalLoop=1;jettySize=auto;html=1;exitX=0.5;exitY=1;exitDx=0;exitDy=0;entryX=0.5;entryY=0;entryDx=0;entryDy=0;endArrow=none;endFill=0;" parent="1" source="ZkkszKnoVTtbmK1aXRnz-74" target="ZkkszKnoVTtbmK1aXRnz-59" edge="1">
          <mxGeometry relative="1" as="geometry" />
        </mxCell>
        <mxCell id="ZkkszKnoVTtbmK1aXRnz-72" style="edgeStyle=none;rounded=0;orthogonalLoop=1;jettySize=auto;html=1;exitX=0;exitY=0.5;exitDx=0;exitDy=0;entryX=1;entryY=0.5;entryDx=0;entryDy=0;endArrow=none;endFill=0;" parent="1" source="ZkkszKnoVTtbmK1aXRnz-74" target="ZkkszKnoVTtbmK1aXRnz-100" edge="1">
          <mxGeometry relative="1" as="geometry" />
        </mxCell>
        <mxCell id="ZkkszKnoVTtbmK1aXRnz-73" style="edgeStyle=none;rounded=0;orthogonalLoop=1;jettySize=auto;html=1;exitX=0;exitY=0.5;exitDx=0;exitDy=0;entryX=1;entryY=0.5;entryDx=0;entryDy=0;endArrow=none;endFill=0;" parent="1" source="ZkkszKnoVTtbmK1aXRnz-74" target="ZkkszKnoVTtbmK1aXRnz-101" edge="1">
          <mxGeometry relative="1" as="geometry" />
        </mxCell>
        <mxCell id="ZkkszKnoVTtbmK1aXRnz-74" value="评价" style="rhombus;whiteSpace=wrap;html=1;" parent="1" vertex="1">
          <mxGeometry x="140" y="963" width="72" height="46" as="geometry" />
        </mxCell>
        <mxCell id="ZkkszKnoVTtbmK1aXRnz-75" value="1" style="edgeStyle=none;rounded=0;orthogonalLoop=1;jettySize=auto;html=1;exitX=0;exitY=0.5;exitDx=0;exitDy=0;entryX=1;entryY=0.5;entryDx=0;entryDy=0;endArrow=none;endFill=0;" parent="1" source="ZkkszKnoVTtbmK1aXRnz-76" target="ZkkszKnoVTtbmK1aXRnz-66" edge="1">
          <mxGeometry relative="1" as="geometry" />
        </mxCell>
        <mxCell id="ZkkszKnoVTtbmK1aXRnz-76" value="生成" style="rhombus;whiteSpace=wrap;html=1;" parent="1" vertex="1">
          <mxGeometry x="142" y="1198" width="72" height="46" as="geometry" />
        </mxCell>
        <mxCell id="ZkkszKnoVTtbmK1aXRnz-77" value="n" style="edgeStyle=none;rounded=0;orthogonalLoop=1;jettySize=auto;html=1;exitX=1;exitY=0.5;exitDx=0;exitDy=0;entryX=0;entryY=0.5;entryDx=0;entryDy=0;endArrow=none;endFill=0;" parent="1" source="ZkkszKnoVTtbmK1aXRnz-78" target="ZkkszKnoVTtbmK1aXRnz-70" edge="1">
          <mxGeometry relative="1" as="geometry" />
        </mxCell>
        <mxCell id="ZkkszKnoVTtbmK1aXRnz-78" value="管理" style="rhombus;whiteSpace=wrap;html=1;" parent="1" vertex="1">
          <mxGeometry x="334" y="831.5" width="72" height="46" as="geometry" />
        </mxCell>
        <mxCell id="ZkkszKnoVTtbmK1aXRnz-79" value="n" style="edgeStyle=none;rounded=0;orthogonalLoop=1;jettySize=auto;html=1;exitX=1;exitY=0.5;exitDx=0;exitDy=0;entryX=0;entryY=0.5;entryDx=0;entryDy=0;endArrow=none;endFill=0;" parent="1" source="ZkkszKnoVTtbmK1aXRnz-80" target="ZkkszKnoVTtbmK1aXRnz-69" edge="1">
          <mxGeometry relative="1" as="geometry" />
        </mxCell>
        <mxCell id="ZkkszKnoVTtbmK1aXRnz-80" value="表达" style="rhombus;whiteSpace=wrap;html=1;" parent="1" vertex="1">
          <mxGeometry x="334" y="963" width="72" height="46" as="geometry" />
        </mxCell>
        <mxCell id="ZkkszKnoVTtbmK1aXRnz-81" style="edgeStyle=none;rounded=0;orthogonalLoop=1;jettySize=auto;html=1;exitX=0.5;exitY=1;exitDx=0;exitDy=0;endArrow=none;endFill=0;" parent="1" source="ZkkszKnoVTtbmK1aXRnz-69" target="ZkkszKnoVTtbmK1aXRnz-69" edge="1">
          <mxGeometry relative="1" as="geometry" />
        </mxCell>
        <mxCell id="ZkkszKnoVTtbmK1aXRnz-82" style="edgeStyle=none;rounded=0;orthogonalLoop=1;jettySize=auto;html=1;exitX=1;exitY=0.5;exitDx=0;exitDy=0;entryX=0;entryY=0.5;entryDx=0;entryDy=0;endArrow=none;endFill=0;" parent="1" source="ZkkszKnoVTtbmK1aXRnz-83" target="ZkkszKnoVTtbmK1aXRnz-50" edge="1">
          <mxGeometry relative="1" as="geometry" />
        </mxCell>
        <mxCell id="ZkkszKnoVTtbmK1aXRnz-83" value="学校" style="ellipse;whiteSpace=wrap;html=1;" parent="1" vertex="1">
          <mxGeometry x="4" y="799" width="54" height="30" as="geometry" />
        </mxCell>
        <mxCell id="ZkkszKnoVTtbmK1aXRnz-84" style="edgeStyle=none;rounded=0;orthogonalLoop=1;jettySize=auto;html=1;exitX=1;exitY=1;exitDx=0;exitDy=0;entryX=0;entryY=0.5;entryDx=0;entryDy=0;endArrow=none;endFill=0;" parent="1" source="ZkkszKnoVTtbmK1aXRnz-85" target="ZkkszKnoVTtbmK1aXRnz-50" edge="1">
          <mxGeometry relative="1" as="geometry" />
        </mxCell>
        <mxCell id="ZkkszKnoVTtbmK1aXRnz-85" value="性别" style="ellipse;whiteSpace=wrap;html=1;" parent="1" vertex="1">
          <mxGeometry x="25" y="756" width="54" height="30" as="geometry" />
        </mxCell>
        <mxCell id="ZkkszKnoVTtbmK1aXRnz-86" style="edgeStyle=none;rounded=0;orthogonalLoop=1;jettySize=auto;html=1;exitX=0;exitY=0.5;exitDx=0;exitDy=0;entryX=0.75;entryY=0;entryDx=0;entryDy=0;endArrow=none;endFill=0;" parent="1" source="ZkkszKnoVTtbmK1aXRnz-87" target="ZkkszKnoVTtbmK1aXRnz-50" edge="1">
          <mxGeometry relative="1" as="geometry" />
        </mxCell>
        <mxCell id="ZkkszKnoVTtbmK1aXRnz-87" value="昵称" style="ellipse;whiteSpace=wrap;html=1;" parent="1" vertex="1">
          <mxGeometry x="250" y="769" width="54" height="30" as="geometry" />
        </mxCell>
        <mxCell id="ZkkszKnoVTtbmK1aXRnz-88" style="edgeStyle=none;rounded=0;orthogonalLoop=1;jettySize=auto;html=1;exitX=1;exitY=0.5;exitDx=0;exitDy=0;entryX=0;entryY=0.5;entryDx=0;entryDy=0;endArrow=none;endFill=0;" parent="1" source="ZkkszKnoVTtbmK1aXRnz-89" target="ZkkszKnoVTtbmK1aXRnz-50" edge="1">
          <mxGeometry relative="1" as="geometry" />
        </mxCell>
        <mxCell id="ZkkszKnoVTtbmK1aXRnz-89" value="电话号码" style="ellipse;whiteSpace=wrap;html=1;" parent="1" vertex="1">
          <mxGeometry x="4" y="839.5" width="54" height="30" as="geometry" />
        </mxCell>
        <mxCell id="ZkkszKnoVTtbmK1aXRnz-90" style="edgeStyle=none;rounded=0;orthogonalLoop=1;jettySize=auto;html=1;exitX=0.5;exitY=1;exitDx=0;exitDy=0;entryX=0;entryY=0.5;entryDx=0;entryDy=0;endArrow=none;endFill=0;" parent="1" source="ZkkszKnoVTtbmK1aXRnz-91" target="ZkkszKnoVTtbmK1aXRnz-50" edge="1">
          <mxGeometry relative="1" as="geometry" />
        </mxCell>
        <mxCell id="ZkkszKnoVTtbmK1aXRnz-91" value="密码" style="ellipse;whiteSpace=wrap;html=1;" parent="1" vertex="1">
          <mxGeometry x="79" y="724" width="54" height="30" as="geometry" />
        </mxCell>
        <mxCell id="ZkkszKnoVTtbmK1aXRnz-92" style="edgeStyle=none;rounded=0;orthogonalLoop=1;jettySize=auto;html=1;exitX=0;exitY=1;exitDx=0;exitDy=0;entryX=0.5;entryY=0;entryDx=0;entryDy=0;endArrow=none;endFill=0;" parent="1" source="ZkkszKnoVTtbmK1aXRnz-93" target="ZkkszKnoVTtbmK1aXRnz-50" edge="1">
          <mxGeometry relative="1" as="geometry" />
        </mxCell>
        <mxCell id="ZkkszKnoVTtbmK1aXRnz-93" value="qq号" style="ellipse;whiteSpace=wrap;html=1;" parent="1" vertex="1">
          <mxGeometry x="210" y="739" width="54" height="30" as="geometry" />
        </mxCell>
        <mxCell id="ZkkszKnoVTtbmK1aXRnz-94" style="edgeStyle=none;rounded=0;orthogonalLoop=1;jettySize=auto;html=1;exitX=0.5;exitY=1;exitDx=0;exitDy=0;entryX=0.25;entryY=0;entryDx=0;entryDy=0;endArrow=none;endFill=0;" parent="1" source="ZkkszKnoVTtbmK1aXRnz-95" target="ZkkszKnoVTtbmK1aXRnz-50" edge="1">
          <mxGeometry relative="1" as="geometry" />
        </mxCell>
        <mxCell id="ZkkszKnoVTtbmK1aXRnz-95" value="微信号" style="ellipse;whiteSpace=wrap;html=1;" parent="1" vertex="1">
          <mxGeometry x="147" y="726" width="54" height="30" as="geometry" />
        </mxCell>
        <mxCell id="ZkkszKnoVTtbmK1aXRnz-96" style="edgeStyle=none;rounded=0;orthogonalLoop=1;jettySize=auto;html=1;exitX=1;exitY=0.5;exitDx=0;exitDy=0;entryX=0;entryY=0.5;entryDx=0;entryDy=0;endArrow=none;endFill=0;" parent="1" source="ZkkszKnoVTtbmK1aXRnz-97" target="ZkkszKnoVTtbmK1aXRnz-50" edge="1">
          <mxGeometry relative="1" as="geometry" />
        </mxCell>
        <mxCell id="ZkkszKnoVTtbmK1aXRnz-97" value="账户余额" style="ellipse;whiteSpace=wrap;html=1;" parent="1" vertex="1">
          <mxGeometry x="-22" y="874" width="54" height="30" as="geometry" />
        </mxCell>
        <mxCell id="ZkkszKnoVTtbmK1aXRnz-98" style="edgeStyle=none;rounded=0;orthogonalLoop=1;jettySize=auto;html=1;exitX=1;exitY=0.5;exitDx=0;exitDy=0;entryX=0;entryY=1;entryDx=0;entryDy=0;endArrow=none;endFill=0;" parent="1" source="ZkkszKnoVTtbmK1aXRnz-99" target="ZkkszKnoVTtbmK1aXRnz-50" edge="1">
          <mxGeometry relative="1" as="geometry" />
        </mxCell>
        <mxCell id="ZkkszKnoVTtbmK1aXRnz-99" value="信用积分" style="ellipse;whiteSpace=wrap;html=1;" parent="1" vertex="1">
          <mxGeometry x="58" y="915" width="54" height="30" as="geometry" />
        </mxCell>
        <mxCell id="ZkkszKnoVTtbmK1aXRnz-100" value="评分" style="ellipse;whiteSpace=wrap;html=1;" parent="1" vertex="1">
          <mxGeometry x="51" y="966" width="54" height="30" as="geometry" />
        </mxCell>
        <mxCell id="ZkkszKnoVTtbmK1aXRnz-101" value="描述" style="ellipse;whiteSpace=wrap;html=1;" parent="1" vertex="1">
          <mxGeometry x="46" y="1009" width="54" height="30" as="geometry" />
        </mxCell>
        <mxCell id="ZkkszKnoVTtbmK1aXRnz-102" value="书名" style="ellipse;whiteSpace=wrap;html=1;" parent="1" vertex="1">
          <mxGeometry x="-194" y="1368" width="54" height="30" as="geometry" />
        </mxCell>
        <mxCell id="ZkkszKnoVTtbmK1aXRnz-103" value="买家昵称" style="ellipse;whiteSpace=wrap;html=1;" parent="1" vertex="1">
          <mxGeometry x="-122" y="1360" width="54" height="30" as="geometry" />
        </mxCell>
        <mxCell id="ZkkszKnoVTtbmK1aXRnz-104" value="书籍价格" style="ellipse;whiteSpace=wrap;html=1;" parent="1" vertex="1">
          <mxGeometry x="-57" y="1343" width="54" height="30" as="geometry" />
        </mxCell>
        <mxCell id="ZkkszKnoVTtbmK1aXRnz-105" value="卖家电话" style="ellipse;whiteSpace=wrap;html=1;" parent="1" vertex="1">
          <mxGeometry x="-18" y="1310" width="54" height="30" as="geometry" />
        </mxCell>
        <mxCell id="ZkkszKnoVTtbmK1aXRnz-106" value="卖家qq" style="ellipse;whiteSpace=wrap;html=1;" parent="1" vertex="1">
          <mxGeometry x="32" y="1278" width="54" height="30" as="geometry" />
        </mxCell>
        <mxCell id="ZkkszKnoVTtbmK1aXRnz-107" value="书籍id" style="ellipse;whiteSpace=wrap;html=1;" parent="1" vertex="1">
          <mxGeometry x="-263" y="1356" width="54" height="30" as="geometry" />
        </mxCell>
        <mxCell id="ZkkszKnoVTtbmK1aXRnz-108" value="订单价格" style="ellipse;whiteSpace=wrap;html=1;" parent="1" vertex="1">
          <mxGeometry x="28" y="1105" width="54" height="30" as="geometry" />
        </mxCell>
        <mxCell id="ZkkszKnoVTtbmK1aXRnz-109" value="订单状态" style="ellipse;whiteSpace=wrap;html=1;" parent="1" vertex="1">
          <mxGeometry x="32" y="1150" width="54" height="30" as="geometry" />
        </mxCell>
        <mxCell id="ZkkszKnoVTtbmK1aXRnz-110" value="订单号" style="ellipse;whiteSpace=wrap;html=1;" parent="1" vertex="1">
          <mxGeometry x="36" y="1063" width="54" height="30" as="geometry" />
        </mxCell>
        <mxCell id="ZkkszKnoVTtbmK1aXRnz-111" value="买家名" style="ellipse;whiteSpace=wrap;html=1;" parent="1" vertex="1">
          <mxGeometry x="277" y="1125.5" width="54" height="30" as="geometry" />
        </mxCell>
        <mxCell id="ZkkszKnoVTtbmK1aXRnz-112" value="订单内容" style="ellipse;whiteSpace=wrap;html=1;" parent="1" vertex="1">
          <mxGeometry x="223" y="1020" width="54" height="30" as="geometry" />
        </mxCell>
        <mxCell id="ZkkszKnoVTtbmK1aXRnz-113" value="卖家昵称" style="ellipse;whiteSpace=wrap;html=1;" parent="1" vertex="1">
          <mxGeometry x="264" y="1048" width="54" height="30" as="geometry" />
        </mxCell>
        <mxCell id="ZkkszKnoVTtbmK1aXRnz-114" value="1" style="edgeStyle=none;rounded=0;orthogonalLoop=1;jettySize=auto;html=1;exitX=1;exitY=0.5;exitDx=0;exitDy=0;entryX=0;entryY=0.5;entryDx=0;entryDy=0;endArrow=none;endFill=0;" parent="1" source="ZkkszKnoVTtbmK1aXRnz-115" target="ZkkszKnoVTtbmK1aXRnz-69" edge="1">
          <mxGeometry relative="1" as="geometry" />
        </mxCell>
        <mxCell id="ZkkszKnoVTtbmK1aXRnz-115" value="生成" style="rhombus;whiteSpace=wrap;html=1;" parent="1" vertex="1">
          <mxGeometry x="334" y="1072" width="72" height="46" as="geometry" />
        </mxCell>
        <mxCell id="ZkkszKnoVTtbmK1aXRnz-116" style="edgeStyle=none;rounded=0;orthogonalLoop=1;jettySize=auto;html=1;exitX=0;exitY=0.5;exitDx=0;exitDy=0;entryX=1;entryY=0.5;entryDx=0;entryDy=0;endArrow=none;endFill=0;" parent="1" source="ZkkszKnoVTtbmK1aXRnz-117" target="ZkkszKnoVTtbmK1aXRnz-69" edge="1">
          <mxGeometry relative="1" as="geometry" />
        </mxCell>
        <mxCell id="ZkkszKnoVTtbmK1aXRnz-117" value="申诉号" style="ellipse;whiteSpace=wrap;html=1;" parent="1" vertex="1">
          <mxGeometry x="674" y="1106.5" width="54" height="30" as="geometry" />
        </mxCell>
        <mxCell id="ZkkszKnoVTtbmK1aXRnz-118" style="edgeStyle=none;rounded=0;orthogonalLoop=1;jettySize=auto;html=1;exitX=0;exitY=0.5;exitDx=0;exitDy=0;entryX=1;entryY=0.5;entryDx=0;entryDy=0;endArrow=none;endFill=0;" parent="1" source="ZkkszKnoVTtbmK1aXRnz-119" target="ZkkszKnoVTtbmK1aXRnz-69" edge="1">
          <mxGeometry relative="1" as="geometry" />
        </mxCell>
        <mxCell id="ZkkszKnoVTtbmK1aXRnz-119" value="申诉内容" style="ellipse;whiteSpace=wrap;html=1;" parent="1" vertex="1">
          <mxGeometry x="683" y="1061" width="54" height="30" as="geometry" />
        </mxCell>
        <mxCell id="ZkkszKnoVTtbmK1aXRnz-120" style="edgeStyle=none;rounded=0;orthogonalLoop=1;jettySize=auto;html=1;exitX=0;exitY=0.5;exitDx=0;exitDy=0;entryX=1;entryY=0.5;entryDx=0;entryDy=0;endArrow=none;endFill=0;" parent="1" source="ZkkszKnoVTtbmK1aXRnz-121" target="ZkkszKnoVTtbmK1aXRnz-69" edge="1">
          <mxGeometry relative="1" as="geometry" />
        </mxCell>
        <mxCell id="ZkkszKnoVTtbmK1aXRnz-121" value="申诉图片" style="ellipse;whiteSpace=wrap;html=1;" parent="1" vertex="1">
          <mxGeometry x="689" y="1018" width="55" height="30" as="geometry" />
        </mxCell>
        <mxCell id="ZkkszKnoVTtbmK1aXRnz-122" style="edgeStyle=none;rounded=0;orthogonalLoop=1;jettySize=auto;html=1;exitX=0;exitY=0.5;exitDx=0;exitDy=0;entryX=1;entryY=0.5;entryDx=0;entryDy=0;endArrow=none;endFill=0;" parent="1" source="ZkkszKnoVTtbmK1aXRnz-123" target="ZkkszKnoVTtbmK1aXRnz-69" edge="1">
          <mxGeometry relative="1" as="geometry" />
        </mxCell>
        <mxCell id="ZkkszKnoVTtbmK1aXRnz-123" value="申诉人昵称" style="ellipse;whiteSpace=wrap;html=1;" parent="1" vertex="1">
          <mxGeometry x="677" y="971" width="54" height="30" as="geometry" />
        </mxCell>
        <mxCell id="ZkkszKnoVTtbmK1aXRnz-124" style="edgeStyle=none;rounded=0;orthogonalLoop=1;jettySize=auto;html=1;exitX=1;exitY=0.5;exitDx=0;exitDy=0;entryX=0.484;entryY=0.979;entryDx=0;entryDy=0;entryPerimeter=0;endArrow=none;endFill=0;" parent="1" source="ZkkszKnoVTtbmK1aXRnz-125" target="ZkkszKnoVTtbmK1aXRnz-66" edge="1">
          <mxGeometry relative="1" as="geometry" />
        </mxCell>
        <mxCell id="ZkkszKnoVTtbmK1aXRnz-125" value="书籍图" style="ellipse;whiteSpace=wrap;html=1;" parent="1" vertex="1">
          <mxGeometry x="-304" y="1318" width="54" height="30" as="geometry" />
        </mxCell>
        <mxCell id="ZkkszKnoVTtbmK1aXRnz-126" style="edgeStyle=none;rounded=0;orthogonalLoop=1;jettySize=auto;html=1;exitX=0;exitY=0.5;exitDx=0;exitDy=0;entryX=1;entryY=0.25;entryDx=0;entryDy=0;endArrow=none;endFill=0;" parent="1" source="ZkkszKnoVTtbmK1aXRnz-127" target="ZkkszKnoVTtbmK1aXRnz-50" edge="1">
          <mxGeometry relative="1" as="geometry" />
        </mxCell>
        <mxCell id="ZkkszKnoVTtbmK1aXRnz-127" value="头像" style="ellipse;whiteSpace=wrap;html=1;" parent="1" vertex="1">
          <mxGeometry x="277" y="807" width="54" height="30" as="geometry" />
        </mxCell>
        <mxCell id="ZkkszKnoVTtbmK1aXRnz-128" style="edgeStyle=none;rounded=0;orthogonalLoop=1;jettySize=auto;html=1;exitX=0;exitY=0.5;exitDx=0;exitDy=0;entryX=1;entryY=0.5;entryDx=0;entryDy=0;endArrow=none;endFill=0;" parent="1" source="ZkkszKnoVTtbmK1aXRnz-129" target="ZkkszKnoVTtbmK1aXRnz-70" edge="1">
          <mxGeometry relative="1" as="geometry" />
        </mxCell>
        <mxCell id="ZkkszKnoVTtbmK1aXRnz-129" value="发布者昵称" style="ellipse;whiteSpace=wrap;html=1;" parent="1" vertex="1">
          <mxGeometry x="643" y="786" width="54" height="30" as="geometry" />
        </mxCell>
        <mxCell id="ZkkszKnoVTtbmK1aXRnz-130" style="edgeStyle=none;rounded=0;orthogonalLoop=1;jettySize=auto;html=1;exitX=0;exitY=0.5;exitDx=0;exitDy=0;entryX=1;entryY=0.5;entryDx=0;entryDy=0;endArrow=none;endFill=0;" parent="1" source="ZkkszKnoVTtbmK1aXRnz-131" target="ZkkszKnoVTtbmK1aXRnz-70" edge="1">
          <mxGeometry relative="1" as="geometry" />
        </mxCell>
        <mxCell id="ZkkszKnoVTtbmK1aXRnz-131" value="书籍名" style="ellipse;whiteSpace=wrap;html=1;" parent="1" vertex="1">
          <mxGeometry x="674" y="829" width="54" height="30" as="geometry" />
        </mxCell>
        <mxCell id="ZkkszKnoVTtbmK1aXRnz-132" style="edgeStyle=none;rounded=0;orthogonalLoop=1;jettySize=auto;html=1;exitX=0;exitY=0.5;exitDx=0;exitDy=0;entryX=1;entryY=0.5;entryDx=0;entryDy=0;endArrow=none;endFill=0;" parent="1" source="ZkkszKnoVTtbmK1aXRnz-133" target="ZkkszKnoVTtbmK1aXRnz-70" edge="1">
          <mxGeometry relative="1" as="geometry" />
        </mxCell>
        <mxCell id="ZkkszKnoVTtbmK1aXRnz-133" value="书籍描述" style="ellipse;whiteSpace=wrap;html=1;" parent="1" vertex="1">
          <mxGeometry x="674" y="872" width="54" height="30" as="geometry" />
        </mxCell>
        <mxCell id="ZkkszKnoVTtbmK1aXRnz-134" style="edgeStyle=none;rounded=0;orthogonalLoop=1;jettySize=auto;html=1;exitX=0;exitY=0.5;exitDx=0;exitDy=0;endArrow=none;endFill=0;entryX=1;entryY=0.5;entryDx=0;entryDy=0;" parent="1" source="ZkkszKnoVTtbmK1aXRnz-135" target="ZkkszKnoVTtbmK1aXRnz-70" edge="1">
          <mxGeometry relative="1" as="geometry" />
        </mxCell>
        <mxCell id="ZkkszKnoVTtbmK1aXRnz-135" value="书籍图" style="ellipse;whiteSpace=wrap;html=1;" parent="1" vertex="1">
          <mxGeometry x="670" y="915" width="54" height="30" as="geometry" />
        </mxCell>
        <mxCell id="ZkkszKnoVTtbmK1aXRnz-136" style="edgeStyle=none;rounded=0;orthogonalLoop=1;jettySize=auto;html=1;exitX=0.5;exitY=1;exitDx=0;exitDy=0;endArrow=none;endFill=0;" parent="1" source="ZkkszKnoVTtbmK1aXRnz-69" target="ZkkszKnoVTtbmK1aXRnz-69" edge="1">
          <mxGeometry relative="1" as="geometry" />
        </mxCell>
        <mxCell id="ZkkszKnoVTtbmK1aXRnz-137" value="性别" style="ellipse;whiteSpace=wrap;html=1;" parent="1" vertex="1">
          <mxGeometry x="260" y="869.5" width="54" height="30" as="geometry" />
        </mxCell>
        <mxCell id="ZkkszKnoVTtbmK1aXRnz-138" value="申诉状态" style="ellipse;whiteSpace=wrap;html=1;" parent="1" vertex="1">
          <mxGeometry x="637" y="1154" width="54" height="30" as="geometry" />
        </mxCell>
        <mxCell id="ZkkszKnoVTtbmK1aXRnz-139" value="申诉订单号" style="ellipse;whiteSpace=wrap;html=1;" parent="1" vertex="1">
          <mxGeometry x="576" y="1163" width="54" height="30" as="geometry" />
        </mxCell>
        <mxCell id="bPHqQYPLhakSbmtWYrmr-4" value="n" style="edgeStyle=none;rounded=0;orthogonalLoop=1;jettySize=auto;html=1;entryX=0.5;entryY=0;entryDx=0;entryDy=0;endArrow=none;endFill=0;" edge="1" parent="1" source="bPHqQYPLhakSbmtWYrmr-2" target="ZkkszKnoVTtbmK1aXRnz-66">
          <mxGeometry relative="1" as="geometry" />
        </mxCell>
        <mxCell id="bPHqQYPLhakSbmtWYrmr-2" value="拥有" style="rhombus;whiteSpace=wrap;html=1;" vertex="1" parent="1">
          <mxGeometry x="-168" y="1001" width="72" height="46" as="geometry" />
        </mxCell>
      </root>
    </mxGraphModel>
  </diagram>
</mxfile>
